<?xml version="1.0" encoding="UTF-8"?>
<svg width="24px" height="24px" viewBox="0 0 24 24" version="1.1" xmlns="http://www.w3.org/2000/svg" xmlns:xlink="http://www.w3.org/1999/xlink">
    <!-- Generator: Sketch 64 (93537) - https://sketch.com -->
    <title>Path</title>
    <desc>Created with Sketch.</desc>
    <g id="Tic-Tac-Toe" stroke="none" stroke-width="1" fill="none" fill-rule="evenodd">
        <g id="VsJarvisSetup" transform="translate(-207.000000, -314.000000)" fill="#FFFFFF" fill-rule="nonzero">
            <g id="Group" transform="translate(64.000000, 277.000000)">
                <path d="M165.778871,38.2382387 C165.111607,37.5709753 164.03372,37.5709753 163.366457,38.2382387 L155,46.5875861 L146.633543,38.2211294 C145.96628,37.553866 144.888393,37.553866 144.221129,38.2211294 C143.553866,38.8883928 143.553866,39.9662799 144.221129,40.6335433 L152.587586,49 L144.221129,57.3664567 C143.553866,58.0337201 143.553866,59.1116072 144.221129,59.7788706 C144.888393,60.446134 145.96628,60.446134 146.633543,59.7788706 L155,51.4124139 L163.366457,59.7788706 C164.03372,60.446134 165.111607,60.446134 165.778871,59.7788706 C166.446134,59.1116072 166.446134,58.0337201 165.778871,57.3664567 L157.412414,49 L165.778871,40.6335433 C166.429025,39.9833892 166.429025,38.8883928 165.778871,38.2382387 Z" id="Path"></path>
            </g>
        </g>
    </g>
</svg>