<?xml version="1.0" encoding="UTF-8"?>
<svg width="158px" height="158px" viewBox="0 0 158 158" version="1.1" xmlns="http://www.w3.org/2000/svg" xmlns:xlink="http://www.w3.org/1999/xlink">
    <!-- Generator: Sketch 64 (93537) - https://sketch.com -->
    <title>Game</title>
    <desc>Created with Sketch.</desc>
    <g id="Tic-Tac-Toe" stroke="none" stroke-width="1" fill="none" fill-rule="evenodd">
        <g id="Home" transform="translate(-102.000000, -198.000000)">
            <g id="Game" transform="translate(102.000000, 199.000000)">
                <rect id="Rectangle" stroke="#FFFFFF" x="49" y="0" width="5" height="156"></rect>
                <rect id="Rectangle" stroke="#FFFFFF" x="104" y="0" width="5" height="156"></rect>
                <rect id="Rectangle" stroke="#FFFFFF" transform="translate(78.500000, 54.000000) rotate(90.000000) translate(-78.500000, -54.000000) " x="76" y="-24" width="5" height="156"></rect>
                <rect id="Rectangle" stroke="#FFFFFF" transform="translate(79.500000, 109.000000) rotate(90.000000) translate(-79.500000, -109.000000) " x="77" y="31" width="5" height="156"></rect>
                <circle id="Oval" stroke="#FFFFFF" stroke-width="3" cx="24" cy="135" r="15"></circle>
                <circle id="Oval" stroke="#FFFFFF" stroke-width="3" cx="79" cy="81" r="15"></circle>
                <circle id="Oval" stroke="#FFFFFF" stroke-width="3" cx="134" cy="27" r="15"></circle>
                <circle id="Oval" stroke="#FFFFFF" stroke-width="3" cx="24" cy="26" r="15"></circle>
                <path d="M148.334471,66.6882821 C147.447099,65.8009101 146.013652,65.8009101 145.12628,66.6882821 L134,77.7918089 L122.87372,66.665529 C121.986348,65.778157 120.552901,65.778157 119.665529,66.665529 C118.778157,67.552901 118.778157,68.9863481 119.665529,69.8737201 L130.791809,81 L119.665529,92.1262799 C118.778157,93.0136519 118.778157,94.447099 119.665529,95.334471 C120.552901,96.221843 121.986348,96.221843 122.87372,95.334471 L134,84.2081911 L145.12628,95.334471 C146.013652,96.221843 147.447099,96.221843 148.334471,95.334471 C149.221843,94.447099 149.221843,93.0136519 148.334471,92.1262799 L137.208191,81 L148.334471,69.8737201 C149.19909,69.0091013 149.19909,67.552901 148.334471,66.6882821 Z" id="Path" fill="#50E3C2" fill-rule="nonzero"></path>
                <path d="M93.334471,121.688282 C92.447099,120.80091 91.0136519,120.80091 90.1262799,121.688282 L79,132.791809 L67.8737201,121.665529 C66.9863481,120.778157 65.552901,120.778157 64.665529,121.665529 C63.778157,122.552901 63.778157,123.986348 64.665529,124.87372 L75.7918089,136 L64.665529,147.12628 C63.778157,148.013652 63.778157,149.447099 64.665529,150.334471 C65.552901,151.221843 66.9863481,151.221843 67.8737201,150.334471 L79,139.208191 L90.1262799,150.334471 C91.0136519,151.221843 92.447099,151.221843 93.334471,150.334471 C94.221843,149.447099 94.221843,148.013652 93.334471,147.12628 L82.2081911,136 L93.334471,124.87372 C94.1990899,124.009101 94.1990899,122.552901 93.334471,121.688282 Z" id="Path" fill="#50E3C2" fill-rule="nonzero"></path>
                <path d="M38.334471,66.6882821 C37.447099,65.8009101 36.0136519,65.8009101 35.1262799,66.6882821 L24,77.7918089 L12.8737201,66.665529 C11.9863481,65.778157 10.552901,65.778157 9.66552901,66.665529 C8.778157,67.552901 8.778157,68.9863481 9.66552901,69.8737201 L20.7918089,81 L9.66552901,92.1262799 C8.778157,93.0136519 8.778157,94.447099 9.66552901,95.334471 C10.552901,96.221843 11.9863481,96.221843 12.8737201,95.334471 L24,84.2081911 L35.1262799,95.334471 C36.0136519,96.221843 37.447099,96.221843 38.334471,95.334471 C39.221843,94.447099 39.221843,93.0136519 38.334471,92.1262799 L27.2081911,81 L38.334471,69.8737201 C39.1990899,69.0091013 39.1990899,67.552901 38.334471,66.6882821 Z" id="Path" fill="#50E3C2" fill-rule="nonzero"></path>
            </g>
        </g>
    </g>
</svg>