<?xml version="1.0" encoding="UTF-8"?>
<svg width="26px" height="28px" viewBox="0 0 26 28" version="1.1" xmlns="http://www.w3.org/2000/svg" xmlns:xlink="http://www.w3.org/1999/xlink">
    <!-- Generator: Sketch 64 (93537) - https://sketch.com -->
    <title>settings-24px</title>
    <desc>Created with Sketch.</desc>
    <g id="Tic-Tac-Toe" stroke="none" stroke-width="1" fill="none" fill-rule="evenodd">
        <g id="Home" transform="translate(-315.000000, -18.000000)">
            <g id="settings-24px" transform="translate(312.000000, 16.000000)">
                <polygon id="Path" points="0 0 32 0 32 32 0 32"></polygon>
                <path d="M25.7066667,11.4666667 L24.7733333,9.85333333 L23.08,10.5333333 L21.6666667,11.1066667 L20.4533333,10.1733333 C19.9333333,9.77333333 19.3866667,9.45333333 18.8133333,9.22666667 L17.4,8.65333333 L17.1866667,7.14666667 L16.9333333,5.33333333 L15.0666667,5.33333333 L14.8133333,7.13333333 L14.6,8.64 L13.1866667,9.22666667 C12.64,9.45333333 12.0933333,9.77333333 11.52,10.2 L10.32,11.1066667 L8.92,10.5466667 L7.22666667,9.85333333 L6.29333333,11.4666667 L7.73333333,12.5866667 L8.92,13.52 L8.73333333,15.0266667 C8.69333333,15.4266667 8.66666667,15.7333333 8.66666667,16 C8.66666667,16.2666667 8.69333333,16.5733333 8.73333333,16.9733333 L8.92,18.48 L7.73333333,19.4133333 L6.29333333,20.5333333 L7.22666667,22.1466667 L8.92,21.4666667 L10.3333333,20.8933333 L11.5466667,21.8266667 C12.0666667,22.2266667 12.6133333,22.5466667 13.1866667,22.7733333 L14.6,23.3466667 L14.8133333,24.8533333 L15.0666667,26.6666667 L16.92,26.6666667 L17.1733333,24.8666667 L17.3866667,23.36 L18.8,22.7866667 C19.3466667,22.56 19.8933333,22.24 20.4666667,21.8133333 L21.6666667,20.9066667 L23.0533333,21.4666667 L24.7466667,22.1466667 L25.68,20.5333333 L24.24,19.4133333 L23.0533333,18.48 L23.24,16.9733333 C23.2933333,16.56 23.3066667,16.28 23.3066667,16 C23.3066667,15.72 23.28,15.4266667 23.24,15.0266667 L23.0533333,13.52 L24.24,12.5866667 L25.7066667,11.4666667 Z M16,21.3333333 C13.0533333,21.3333333 10.6666667,18.9466667 10.6666667,16 C10.6666667,13.0533333 13.0533333,10.6666667 16,10.6666667 C18.9466667,10.6666667 21.3333333,13.0533333 21.3333333,16 C21.3333333,18.9466667 18.9466667,21.3333333 16,21.3333333 Z" id="Shape" fill="#000000" fill-rule="nonzero" opacity="0.3"></path>
                <path d="M25.9066667,17.3066667 C25.96,16.88 26,16.4533333 26,16 C26,15.5466667 25.96,15.12 25.9066667,14.6933333 L28.72,12.4933333 C28.9733333,12.2933333 29.04,11.9333333 28.88,11.64 L26.2133333,7.02666667 C26.0933333,6.81333333 25.8666667,6.69333333 25.6266667,6.69333333 C25.5466667,6.69333333 25.4666667,6.70666667 25.4,6.73333333 L22.08,8.06666667 C21.3866667,7.53333333 20.64,7.09333333 19.8266667,6.76 L19.32,3.22666667 C19.28,2.90666667 19,2.66666667 18.6666667,2.66666667 L13.3333333,2.66666667 C13,2.66666667 12.72,2.90666667 12.68,3.22666667 L12.1733333,6.76 C11.36,7.09333333 10.6133333,7.54666667 9.92,8.06666667 L6.6,6.73333333 C6.52,6.70666667 6.44,6.69333333 6.36,6.69333333 C6.13333333,6.69333333 5.90666667,6.81333333 5.78666667,7.02666667 L3.12,11.64 C2.94666667,11.9333333 3.02666667,12.2933333 3.28,12.4933333 L6.09333333,14.6933333 C6.04,15.12 6,15.56 6,16 C6,16.44 6.04,16.88 6.09333333,17.3066667 L3.28,19.5066667 C3.02666667,19.7066667 2.96,20.0666667 3.12,20.36 L5.78666667,24.9733333 C5.90666667,25.1866667 6.13333333,25.3066667 6.37333333,25.3066667 C6.45333333,25.3066667 6.53333333,25.2933333 6.6,25.2666667 L9.92,23.9333333 C10.6133333,24.4666667 11.36,24.9066667 12.1733333,25.24 L12.68,28.7733333 C12.72,29.0933333 13,29.3333333 13.3333333,29.3333333 L18.6666667,29.3333333 C19,29.3333333 19.28,29.0933333 19.32,28.7733333 L19.8266667,25.24 C20.64,24.9066667 21.3866667,24.4533333 22.08,23.9333333 L25.4,25.2666667 C25.48,25.2933333 25.56,25.3066667 25.64,25.3066667 C25.8666667,25.3066667 26.0933333,25.1866667 26.2133333,24.9733333 L28.88,20.36 C29.04,20.0666667 28.9733333,19.7066667 28.72,19.5066667 L25.9066667,17.3066667 Z M23.2666667,15.0266667 C23.32,15.44 23.3333333,15.72 23.3333333,16 C23.3333333,16.28 23.3066667,16.5733333 23.2666667,16.9733333 L23.08,18.48 L24.2666667,19.4133333 L25.7066667,20.5333333 L24.7733333,22.1466667 L23.08,21.4666667 L21.6933333,20.9066667 L20.4933333,21.8133333 C19.92,22.24 19.3733333,22.56 18.8266667,22.7866667 L17.4133333,23.36 L17.2,24.8666667 L16.9333333,26.6666667 L15.0666667,26.6666667 L14.8133333,24.8666667 L14.6,23.36 L13.1866667,22.7866667 C12.6133333,22.5466667 12.08,22.24 11.5466667,21.84 L10.3333333,20.9066667 L8.92,21.48 L7.22666667,22.16 L6.29333333,20.5466667 L7.73333333,19.4266667 L8.92,18.4933333 L8.73333333,16.9866667 C8.69333333,16.5733333 8.66666667,16.2666667 8.66666667,16 C8.66666667,15.7333333 8.69333333,15.4266667 8.73333333,15.0266667 L8.92,13.52 L7.73333333,12.5866667 L6.29333333,11.4666667 L7.22666667,9.85333333 L8.92,10.5333333 L10.3066667,11.0933333 L11.5066667,10.1866667 C12.08,9.76 12.6266667,9.44 13.1733333,9.21333333 L14.5866667,8.64 L14.8,7.13333333 L15.0666667,5.33333333 L16.92,5.33333333 L17.1733333,7.13333333 L17.3866667,8.64 L18.8,9.21333333 C19.3733333,9.45333333 19.9066667,9.76 20.44,10.16 L21.6533333,11.0933333 L23.0666667,10.52 L24.76,9.84 L25.6933333,11.4533333 L24.2666667,12.5866667 L23.08,13.52 L23.2666667,15.0266667 Z M16,10.6666667 C13.0533333,10.6666667 10.6666667,13.0533333 10.6666667,16 C10.6666667,18.9466667 13.0533333,21.3333333 16,21.3333333 C18.9466667,21.3333333 21.3333333,18.9466667 21.3333333,16 C21.3333333,13.0533333 18.9466667,10.6666667 16,10.6666667 Z M16,18.6666667 C14.5333333,18.6666667 13.3333333,17.4666667 13.3333333,16 C13.3333333,14.5333333 14.5333333,13.3333333 16,13.3333333 C17.4666667,13.3333333 18.6666667,14.5333333 18.6666667,16 C18.6666667,17.4666667 17.4666667,18.6666667 16,18.6666667 Z" id="Shape" fill="#FFFFFF" fill-rule="nonzero"></path>
            </g>
        </g>
    </g>
</svg>